<svg xmlns="http://www.w3.org/2000/svg" data-name="Layer 1" viewBox="0 0 100 125" x="0px" y="0px"><path d="M84,14.65H16A1.39,1.39,0,0,0,14.65,16V84A1.39,1.39,0,0,0,16,85.35H84A1.39,1.39,0,0,0,85.35,84V16A1.39,1.39,0,0,0,84,14.65Zm-1.4,67.91H17.44V17.44H82.56Z"/><path d="M41.16,73.52H58.84a1.39,1.39,0,0,0,1.39-1.39V50.42l7.54-14.48,0-.07,0-.06s0-.06,0-.09a.86.86,0,0,0,.06-.23c0-.05,0-.1,0-.15a1.93,1.93,0,0,0,0-.24l0-.14a1,1,0,0,0-.09-.24.61.61,0,0,0-.05-.12v0a1.56,1.56,0,0,0-.23-.28h0l-7.67-7.4h0l-.06-.05-.14-.11-.09-.05a.71.71,0,0,0-.15-.08l-.11,0-.14,0a1,1,0,0,0-.24,0H41.16a1.42,1.42,0,0,0-.36.05l-.09,0a1.37,1.37,0,0,0-.32.16h0a1.48,1.48,0,0,0-.26.24l-.06.07a2,2,0,0,0-.19.31h0a0,0,0,0,1,0,0,1.23,1.23,0,0,0-.07.32.38.38,0,0,0,0,.1s0,.05,0,.07V72.13A1.39,1.39,0,0,0,41.16,73.52ZM60.23,44.38l-1.39,2.68L58,48.68H43.46l6.25-12H64.24ZM42.56,31.15l4.59,4.42-4.59,8.81ZM57.44,70.73H42.56V51.47H57.44ZM60.23,33.9H49.43l-4.81-4.63H58.27l.57.54,1.39,1.34,2.85,2.75Z"/><text x="0" y="115" fill="#000000" font-size="5px" font-weight="bold" font-family="'Helvetica Neue', Helvetica, Arial-Unicode, Arial, Sans-serif">Created by Tom Farrell</text><text x="0" y="120" fill="#000000" font-size="5px" font-weight="bold" font-family="'Helvetica Neue', Helvetica, Arial-Unicode, Arial, Sans-serif">from the Noun Project</text></svg>