<?xml version="1.0" encoding="UTF-8" standalone="no"?>
<!-- Created with Inkscape (http://www.inkscape.org/) -->

<svg
   width="512"
   height="512"
   viewBox="0 0 512 512"
   version="1.1"
   id="svg1"
   inkscape:version="1.3 (0e150ed6c4, 2023-07-21)"
   sodipodi:docname="switch-icon.svg"
   xmlns:inkscape="http://www.inkscape.org/namespaces/inkscape"
   xmlns:sodipodi="http://sodipodi.sourceforge.net/DTD/sodipodi-0.dtd"
   xmlns="http://www.w3.org/2000/svg"
   xmlns:svg="http://www.w3.org/2000/svg">
  <sodipodi:namedview
     id="namedview1"
     pagecolor="#ffffff"
     bordercolor="#000000"
     borderopacity="0.25"
     inkscape:showpageshadow="2"
     inkscape:pageopacity="0.0"
     inkscape:pagecheckerboard="0"
     inkscape:deskcolor="#d1d1d1"
     inkscape:document-units="px"
     inkscape:zoom="1.5683594"
     inkscape:cx="255.68119"
     inkscape:cy="256"
     inkscape:window-width="1920"
     inkscape:window-height="1007"
     inkscape:window-x="0"
     inkscape:window-y="0"
     inkscape:window-maximized="1"
     inkscape:current-layer="layer1" />
  <defs
     id="defs1" />
  <g
     inkscape:label="Layer 1"
     inkscape:groupmode="layer"
     id="layer1">
    <path
       d="M 163.11944,468.18086 H 323.10153 A 12.577776,12.577776 0 0 0 335.67929,455.6031 V 259.15451 l 68.22765,-131.02603 v -0.63341 -0.54294 c 0,0 0,-0.54291 0,-0.81438 a 7.7819333,7.7819333 0 0 0 0.54294,-2.08121 c 0,-0.45245 0,-0.90488 0,-1.35731 a 17.464106,17.464106 0 0 0 0,-2.17171 v -1.26683 a 9.0487597,9.0487597 0 0 0 -0.8144,-2.1717 5.5197434,5.5197434 0 0 0 -0.45244,-1.08584 v 0 a 14.116065,14.116065 0 0 0 -2.08121,-2.53366 v 0 L 331.69784,46.50867 v 0 l -0.54292,-0.452451 -1.26683,-0.995364 -0.8144,-0.452431 a 6.4246195,6.4246195 0 0 0 -1.35731,-0.723898 h -0.99536 -1.26681 a 9.0487597,9.0487597 0 0 0 -2.17172,0 H 163.11944 a 12.849239,12.849239 0 0 0 -3.25754,0.452431 h -0.8144 a 12.396801,12.396801 0 0 0 -2.89561,1.447815 v 0 a 13.392164,13.392164 0 0 0 -2.35267,2.171693 l -0.54292,0.633415 a 18.097519,18.097519 0 0 0 -1.71926,2.805108 v 0 a 11.129974,11.129974 0 0 0 -0.63341,2.89561 3.4385287,3.4385287 0 0 0 0,0.904881 c 0,0 0,0.452432 0,0.633416 V 455.6031 a 12.577776,12.577776 0 0 0 12.21581,12.57776 z m 172.55985,-263.68085 -12.57776,24.25068 -7.60096,14.65898 H 183.9316 L 240.48635,134.82456 H 371.96483 Z M 175.78771,84.784915 l 41.5338,39.995525 -41.5338,79.71957 z M 310.43326,442.93483 H 175.78771 V 268.65572 h 134.64555 z m 25.24603,-333.26581 h -97.7266 L 194.42816,67.773244 h 123.51556 l 5.15781,4.886338 12.57776,12.125333 25.78897,24.884105 z"
       id="path2"
       style="stroke-width:9.04876" />
  </g>
</svg>
